<svg xmlns="http://www.w3.org/2000/svg" viewBox="0 0 512 512" width="512" height="512">
  <rect width="512" height="512" fill="#2a4a47"/>
  <g fill="#e6197d">
    <!-- H letter - serif style -->
    <path d="M108,130 C108,125 112,122 116,122 L130,122 C134,122 136,125 136,130 L136,220 L220,220 L220,130 C220,125 222,122 226,122 L240,122 C244,122 246,125 246,130 L246,390 C246,395 244,398 240,398 L226,398 C222,398 220,395 220,390 L220,250 L136,250 L136,390 C136,395 134,398 130,398 L116,398 C112,398 108,395 108,390 Z"/>
    <!-- Wine glass bowl -->
    <path d="M260,115 C260,115 255,170 275,185 C280,189 282,192 282,192 L282,215 L258,215 C255,215 253,217 253,220 C253,223 255,225 258,225 L310,225 C313,225 315,223 315,220 C315,217 313,215 310,215 L288,215 L288,192 C288,192 290,189 295,185 C315,170 310,115 310,115 C310,112 308,110 305,110 L265,110 C262,110 260,112 260,115 Z"/>
    <!-- Wine in glass -->
    <path d="M263,148 C263,148 262,160 272,172 C276,177 280,180 282,182 L282,182 L288,182 C290,180 294,177 298,172 C308,160 307,148 307,148 Z" fill="#c41468" opacity="0.6"/>
    <!-- S letter - flowing serif style -->
    <path d="M340,240 C310,240 280,255 280,290 C280,330 330,335 350,340 C370,345 385,355 385,375 C385,400 360,410 335,410 C310,410 290,400 280,390 C277,387 273,388 271,391 L265,400 C263,403 264,407 267,409 C282,422 305,430 335,430 C375,430 410,410 410,375 C410,335 365,325 340,318 C320,312 305,305 305,290 C305,270 325,260 345,260 C360,260 375,265 385,275 C388,278 392,277 394,274 L400,265 C402,262 401,258 398,256 C385,244 365,240 340,240 Z"/>
  </g>
</svg>
